<svg width="140" height="44" viewBox="0 0 140 44" fill="none" xmlns="http://www.w3.org/2000/svg">
<path d="M73.7832 10.9778C73.7832 12.5523 72.5148 13.8207 70.9398 13.8207C69.3655 13.8207 68.0972 12.5523 68.0972 10.9778C68.0972 9.40331 69.3218 8.13498 70.9398 8.13498C72.5582 8.17873 73.7832 9.44706 73.7832 10.9778ZM62.0616 16.7073C62.0616 16.9697 62.0616 17.407 62.0616 17.407C62.0616 17.407 60.7058 15.6576 57.8192 15.6576C53.0519 15.6576 49.3343 19.2877 49.3343 24.3174C49.3343 29.3033 53.0081 32.9772 57.8192 32.9772C60.7495 32.9772 62.0616 31.184 62.0616 31.184V31.9276C62.0616 32.2774 62.324 32.5398 62.6739 32.5398H66.2165V16.095C66.2165 16.095 62.9801 16.095 62.6739 16.095C62.324 16.095 62.0616 16.4011 62.0616 16.7073ZM62.0616 27.2477C61.4056 28.2099 60.0935 29.0409 58.519 29.0409C55.7198 29.0409 53.5768 27.2915 53.5768 24.3174C53.5768 21.3434 55.7198 19.5939 58.519 19.5939C60.0497 19.5939 61.4493 20.4686 62.0616 21.3871V27.2477ZM68.8408 16.095H73.0391V32.5398H68.8408V16.095ZM131.558 15.6576C128.672 15.6576 127.316 17.407 127.316 17.407V8.17873H123.118V32.5398C123.118 32.5398 126.354 32.5398 126.66 32.5398C127.01 32.5398 127.272 32.2337 127.272 31.9276V31.184C127.272 31.184 128.628 32.9772 131.515 32.9772C136.282 32.9772 140 29.3033 140 24.3174C140 19.3315 136.282 15.6576 131.558 15.6576ZM130.859 28.9972C129.241 28.9972 127.972 28.1662 127.316 27.204V21.3433C127.972 20.4686 129.372 19.5502 130.859 19.5502C133.658 19.5502 135.801 21.2996 135.801 24.2737C135.801 27.2477 133.658 28.9972 130.859 28.9972ZM120.931 22.7866V32.5836H116.732V23.2677C116.732 20.5561 115.857 19.4627 113.496 19.4627C112.227 19.4627 110.915 20.1187 110.084 21.0809V32.5398H105.885V16.095H109.21C109.56 16.095 109.821 16.4011 109.821 16.7073V17.407C111.046 16.1387 112.665 15.6576 114.282 15.6576C116.12 15.6576 117.65 16.1825 118.875 17.2321C120.362 18.4568 120.931 20.0313 120.931 22.7866ZM95.6946 15.6576C92.8085 15.6576 91.4526 17.407 91.4526 17.407V8.17873H87.254V32.5398C87.254 32.5398 90.4901 32.5398 90.796 32.5398C91.146 32.5398 91.4085 32.2337 91.4085 31.9276V31.184C91.4085 31.184 92.7644 32.9772 95.6512 32.9772C100.418 32.9772 104.136 29.3033 104.136 24.3174C104.179 19.3315 100.462 15.6576 95.6946 15.6576ZM94.9953 28.9972C93.3769 28.9972 92.1085 28.1662 91.4526 27.204V21.3433C92.1085 20.4686 93.5078 19.5502 94.9953 19.5502C97.7939 19.5502 99.9373 21.2996 99.9373 24.2737C99.9373 27.2477 97.7939 28.9972 94.9953 28.9972ZM83.6238 15.6576C84.8922 15.6576 85.5481 15.8763 85.5481 15.8763V19.7688C85.5481 19.7688 82.0488 18.5879 79.862 21.0809V32.5836H75.6634V16.095C75.6634 16.095 78.9002 16.095 79.2061 16.095C79.5561 16.095 79.8186 16.4011 79.8186 16.7073V17.407C80.6061 16.4886 82.3113 15.6576 83.6238 15.6576ZM40.0185 31.0528C39.7998 30.528 39.5811 29.9594 39.3624 29.4783C39.0126 28.691 38.6626 27.9475 38.3565 27.2477L38.3128 27.204C35.2949 20.6436 32.0585 13.9957 28.647 7.43519L28.5159 7.17276C28.1659 6.51671 27.8161 5.81693 27.4661 5.11715C27.0288 4.3299 26.5914 3.49891 25.8916 2.71165C24.4921 0.962199 22.4802 0 20.3371 0C18.1503 0 16.1822 0.962199 14.7389 2.62418C14.0828 3.41144 13.6017 4.24243 13.1644 5.02968C12.8145 5.72946 12.4646 6.42924 12.1147 7.08526L11.9835 7.34769C8.61583 13.9082 5.33557 20.5561 2.31776 27.1165L2.27402 27.204C1.96787 27.9038 1.61798 28.6473 1.26809 29.4346C1.04941 29.9157 0.83073 30.4405 0.612047 31.0091C0.0434747 32.6273 -0.131471 34.1581 0.0872114 35.7326C0.568311 39.0128 2.75513 41.7682 5.77293 42.9928C6.91008 43.4739 8.09097 43.6926 9.31555 43.6926C9.66548 43.6926 10.1028 43.6488 10.4527 43.6051C11.896 43.4302 13.383 42.9491 14.8264 42.1181C16.6196 41.1122 18.3252 39.6689 20.2497 37.5695C22.1741 39.6689 23.9235 41.1122 25.6729 42.1181C27.1163 42.9491 28.6033 43.4302 30.0466 43.6051C30.3965 43.6488 30.8338 43.6926 31.1838 43.6926C32.4083 43.6926 33.633 43.4739 34.7264 42.9928C37.7879 41.7682 39.931 38.9691 40.4121 35.7326C40.762 34.2018 40.5871 32.671 40.0185 31.0528ZM20.2934 33.3271C17.9316 30.3531 16.4009 27.5539 15.876 25.1922C15.6573 24.1862 15.6136 23.3115 15.7448 22.5243C15.8323 21.8245 16.0947 21.2121 16.4446 20.6873C17.2756 19.5064 18.6752 18.7629 20.2934 18.7629C21.9116 18.7629 23.355 19.4627 24.1422 20.6873C24.4921 21.2121 24.7545 21.8245 24.842 22.5243C24.9732 23.3115 24.9295 24.2299 24.7108 25.1922C24.1859 27.5101 22.6552 30.3093 20.2934 33.3271ZM37.7442 35.3827C37.4381 37.657 35.9073 39.6251 33.7642 40.4998C32.7145 40.9372 31.5774 41.0684 30.4402 40.9372C29.3468 40.806 28.2534 40.4561 27.1163 39.8C25.5418 38.9253 23.9673 37.5695 22.1303 35.5576C25.0169 32.015 26.7664 28.7785 27.4225 25.8919C27.7286 24.5361 27.7723 23.3115 27.6411 22.1743C27.4661 21.0809 27.0725 20.0749 26.4602 19.2002C25.1044 17.2321 22.8301 16.095 20.2934 16.095C17.7567 16.095 15.4824 17.2759 14.1266 19.2002C13.5143 20.0749 13.1206 21.0809 12.9457 22.1743C12.7707 23.3115 12.8145 24.5798 13.1644 25.8919C13.8204 28.7785 15.6136 32.0587 18.4565 35.6014C16.6633 37.6132 15.045 38.9691 13.4705 39.8438C12.3334 40.4998 11.24 40.8498 10.1466 40.9809C8.96569 41.1122 7.82854 40.9372 6.8226 40.5436C4.67953 39.6689 3.14875 37.7007 2.8426 35.4264C2.71139 34.333 2.79886 33.2396 3.23622 32.015C3.36744 31.5776 3.58612 31.1403 3.8048 30.6154C4.11095 29.9157 4.46085 29.1721 4.81073 28.4286L4.85447 28.3412C7.87229 21.8245 11.1087 15.1765 14.4764 8.70352L14.6077 8.44109C14.9575 7.78505 15.3075 7.08526 15.6573 6.42924C16.0073 5.72946 16.4009 5.07342 16.882 4.50484C17.8005 3.45517 19.025 2.8866 20.3809 2.8866C21.7367 2.8866 22.9613 3.45517 23.8797 4.50484C24.3609 5.07342 24.7545 5.72946 25.1044 6.42924C25.4543 7.08526 25.8042 7.78505 26.1541 8.44109L26.2853 8.70352C29.6093 15.2202 32.8457 21.8681 35.8635 28.3849V28.4286C36.2134 29.1284 36.5196 29.9157 36.8694 30.6154C37.0881 31.1403 37.3068 31.5776 37.438 32.015C37.7879 33.1521 37.9192 34.2455 37.7442 35.3827Z" fill="black"/>
</svg>
