<svg width="40" height="40" viewBox="0 0 40 40" fill="none" xmlns="http://www.w3.org/2000/svg">
<path d="M19.9997 25.4168C22.9912 25.4168 25.4163 22.9917 25.4163 20.0002C25.4163 17.0086 22.9912 14.5835 19.9997 14.5835C17.0081 14.5835 14.583 17.0086 14.583 20.0002C14.583 22.9917 17.0081 25.4168 19.9997 25.4168Z" stroke="white" stroke-width="2.5" stroke-linecap="round" stroke-linejoin="round"/>
<path d="M20.0003 32.0832C13.3269 32.0832 7.91699 26.6733 7.91699 19.9998C7.91699 13.3264 13.3269 7.9165 20.0003 7.9165C31.3545 7.9165 32.0837 15.2082 32.0837 19.9998V22.0832C32.0837 23.9242 30.5913 25.4165 28.7503 25.4165C26.9093 25.4165 25.417 23.9242 25.417 22.0832V14.5832" stroke="white" stroke-width="2.5" stroke-linecap="round" stroke-linejoin="round"/>
</svg>
