<svg width="32" height="32" viewBox="0 0 32 32" fill="none" xmlns="http://www.w3.org/2000/svg">
<path d="M10.667 11.3335C10.667 12.4381 9.77155 13.3335 8.66699 13.3335C7.56243 13.3335 6.66699 12.4381 6.66699 11.3335C6.66699 10.2289 7.56243 9.3335 8.66699 9.3335C9.77155 9.3335 10.667 10.2289 10.667 11.3335Z" stroke="white" stroke-width="1.33333" stroke-linecap="round" stroke-linejoin="round"/>
<path d="M10.667 20.6665C10.667 21.7709 9.77155 22.6665 8.66699 22.6665C7.56243 22.6665 6.66699 21.7709 6.66699 20.6665C6.66699 19.5621 7.56243 18.6665 8.66699 18.6665C9.77155 18.6665 10.667 19.5621 10.667 20.6665Z" stroke="white" stroke-width="1.33333" stroke-linecap="round" stroke-linejoin="round"/>
<path d="M16.333 11.3335H25.6663" stroke="white" stroke-width="2" stroke-linecap="round" stroke-linejoin="round"/>
<path d="M16.333 20.6665H25.6663" stroke="white" stroke-width="2" stroke-linecap="round" stroke-linejoin="round"/>
</svg>
