<svg width="150" height="27" viewBox="0 0 150 27" fill="none" xmlns="http://www.w3.org/2000/svg">
<path d="M30.274 7.48067C24.8248 7.48067 20.5671 11.6172 20.5671 17.1549C20.5671 22.6925 24.7172 26.7937 30.274 26.7937C35.8307 26.7937 40.053 22.6217 40.053 17.1195C40.053 11.6526 35.9028 7.48067 30.274 7.48067ZM30.3107 22.8028C27.2076 22.8028 24.9338 20.3928 24.9338 17.1562C24.9338 13.8829 27.1708 11.4742 30.274 11.4742C33.4138 11.4742 35.6863 13.9197 35.6863 17.1562C35.6863 20.3928 33.4138 22.8028 30.3107 22.8028ZM41.243 11.6894H43.9499V26.4355H48.2798V7.84013H41.243V11.6894ZM9.67013 11.4729C11.944 11.4729 13.7482 12.8753 14.433 14.9613H19.0162C18.1856 10.5021 14.5052 7.48067 9.70687 7.48067C4.25774 7.48067 0 11.6172 0 17.1562C0 22.6952 4.15018 26.795 9.70687 26.795C14.3976 26.795 18.1502 23.7737 18.9808 19.2776H14.433C13.7836 21.3636 11.9794 22.8028 9.70552 22.8028C6.56566 22.8028 4.36531 20.3928 4.36531 17.1562C4.36667 13.8829 6.53162 11.4729 9.67013 11.4729ZM123.514 15.3575L120.339 14.8905C118.823 14.6754 117.741 14.1716 117.741 12.9843C117.741 11.6894 119.149 11.0426 121.061 11.0426C123.153 11.0426 124.489 11.9413 124.777 13.4159H128.963C128.494 9.6756 125.607 7.48202 121.169 7.48202C116.586 7.48202 113.555 9.8199 113.555 13.1286C113.555 16.293 115.541 18.1284 119.545 18.7031L122.72 19.1701C124.273 19.3852 125.138 19.9979 125.138 21.1485C125.138 22.6231 123.623 23.2345 121.53 23.2345C118.968 23.2345 117.524 22.1915 117.308 20.6092H113.05C113.448 24.242 116.297 26.795 121.493 26.795C126.221 26.795 129.359 24.6369 129.359 20.932C129.359 17.6233 127.087 15.8968 123.514 15.3575ZM46.1149 0.179732C44.5273 0.179732 43.3358 1.33029 43.3358 2.91248C43.3358 4.49466 44.5258 5.64522 46.1149 5.64522C47.7025 5.64522 48.8939 4.49466 48.8939 2.91248C48.8939 1.33029 47.7025 0.179732 46.1149 0.179732ZM109.658 14.207C109.658 10.1794 107.205 7.48202 102.009 7.48202C97.1017 7.48202 94.359 9.9642 93.8175 13.7767H98.112C98.3287 12.3021 99.483 11.0794 101.937 11.0794C104.138 11.0794 105.221 12.0503 105.221 13.2375C105.221 14.7843 103.236 15.1792 100.782 15.4311C97.4625 15.7906 93.3487 16.9411 93.3487 21.2574C93.3487 24.6028 95.8395 26.7596 99.8085 26.7596C102.911 26.7596 104.86 25.4648 105.835 23.4142C105.98 25.2483 107.35 26.4355 109.264 26.4355H111.789V22.5877H109.66V14.207H109.658ZM105.4 18.8827C105.4 21.365 103.236 23.1991 100.601 23.1991C98.9767 23.1991 97.6058 22.5155 97.6058 21.0777C97.6058 19.2436 99.807 18.7398 101.827 18.5246C103.776 18.3449 104.859 17.9133 105.4 17.0854V18.8827ZM82.4153 7.48067C79.9973 7.48067 77.9767 8.48827 76.533 10.178V0H72.2033V26.4355H76.461V23.9902C77.904 25.7521 79.962 26.795 82.4153 26.795C87.6113 26.795 91.545 22.6952 91.545 17.1562C91.545 11.6172 87.5393 7.48067 82.4153 7.48067ZM81.7658 22.8028C78.663 22.8028 76.389 20.3928 76.389 17.1562C76.389 13.9197 78.6982 11.4742 81.801 11.4742C84.9413 11.4742 87.1418 13.8843 87.1418 17.1562C87.1418 20.3928 84.8693 22.8028 81.7658 22.8028ZM61.8469 7.48067C59.0324 7.48067 57.1916 8.63122 56.1091 10.2502V7.84013H51.8146V26.4342H56.1445V16.3284C56.1445 13.4867 57.9486 11.4729 60.6187 11.4729C63.1091 11.4729 64.66 13.2348 64.66 15.7892V26.4355H68.9899V15.4665C68.9912 10.7893 66.5743 7.48067 61.8469 7.48067ZM150 16.5448C150 11.2223 146.103 7.48202 140.87 7.48202C135.313 7.48202 131.236 11.6539 131.236 17.1562C131.236 22.9471 135.602 26.795 140.942 26.795C145.454 26.795 148.99 24.1331 149.891 20.3574H145.38C144.73 22.0117 143.143 22.9472 141.014 22.9472C138.234 22.9472 136.141 21.2206 135.673 18.1992H149.999V16.5448H150ZM135.926 15.1057C136.613 12.5159 138.561 11.2577 140.798 11.2577C143.252 11.2577 145.128 12.6602 145.561 15.1057H135.926Z" fill="black"/>
</svg>
