<svg width="160" height="40" viewBox="0 0 160 40" fill="none" xmlns="http://www.w3.org/2000/svg">
<g clip-path="url(#clip0_801_14565)">
<path fill-rule="evenodd" clip-rule="evenodd" d="M27.8412 32.7181C25.4351 35.1242 21.7516 35.1242 15.123 35.1242C8.49576 35.1242 4.8123 35.1229 2.40478 32.7181C0 30.3119 0 26.6271 0 19.9999C0 13.374 0 9.68779 2.40478 7.28301C4.8123 4.87549 8.49576 4.87549 15.123 4.87549C21.7516 4.87549 25.4351 4.87549 27.8412 7.28301C30.2488 9.68916 30.2488 13.3726 30.2488 19.9999C30.2488 26.6271 30.2488 30.3119 27.8412 32.7181ZM16.5695 18.0571L7.43982 18.0392L7.43844 20.2872L16.0552 20.3037L15.5479 22.5477L7.43844 22.5311V24.7778L15.0405 24.7943H15.0281C14.7339 25.9273 15.563 27.0506 16.7015 27.0506H18.2799L19.1516 24.7943H15.0405L15.5479 22.5504L20.7149 22.56L21.5165 20.3133L16.0662 20.3037L16.5763 18.0571L23.9542 18.0214L24.8686 15.7843L17.0864 15.8104L16.5695 18.0571ZM15.7568 13.5555L7.43982 13.5376L7.43844 15.7857L17.0851 15.8022L17.1717 15.4103C17.3875 14.4643 16.6973 13.5555 15.7568 13.5555Z" fill="black"/>
<path d="M53.7706 28.744H57.637L58.0109 26.432H58.7141C59.2764 28.1315 60.7987 28.9798 62.3697 28.9798C65.6249 28.9798 67.6173 26.8576 67.6173 22.3299C67.6173 18.3437 65.9765 15.6801 62.4618 15.6801C60.7763 15.6801 59.2764 16.6931 58.7141 18.2014H58.0109L58.2453 14.6643V11.0562H53.7706V28.744ZM58.2453 22.7304V21.9518C58.2453 20.2998 59.1592 19.2869 60.7526 19.2869C62.1353 19.2869 63.0716 19.9008 63.0716 21.4802V23.202C63.0716 24.4996 62.4395 25.3717 60.775 25.3717C59.1132 25.3717 58.2453 24.3573 58.2453 22.7304ZM68.7879 22.3523C68.7879 26.3386 71.3888 28.9798 75.3471 28.9798C78.6288 28.9798 81.0399 27.2344 81.3694 24.5471H77.1051C76.988 25.2768 76.2387 25.7009 75.2076 25.7009C74.1528 25.7009 73.2849 25.0423 73.2849 24.0503V23.3904H81.2285C81.3694 22.8964 81.4148 22.2114 81.4148 21.5514C81.4148 17.7311 78.6749 15.6787 75.2076 15.6787C71.5995 15.6787 68.7879 18.0841 68.7879 22.3523ZM73.2849 20.7017V20.4435C73.2849 19.5938 74.0816 18.9799 75.1602 18.9799C76.2387 18.9799 76.942 19.5938 76.942 20.4435V20.7017H73.2849ZM91.8474 15.8433C90.4186 15.8433 89.3169 16.6693 88.965 18.7204H88.2622L87.7233 15.9145H81.8423V19.5227H83.7885V28.744H88.263V23.509C88.263 20.8203 89.9266 20.0654 91.8228 20.0654C92.0823 20.0654 92.3402 20.0891 92.6204 20.1128V15.9145C92.3664 15.8629 92.1069 15.8392 91.8474 15.8433ZM93.8096 15.9145V32.6829H98.2841V29.9942L98.0492 26.4558H98.7529C99.3149 27.9654 100.815 28.9798 102.502 28.9798C106.015 28.9798 107.656 26.3149 107.656 22.3299C107.656 17.8023 105.664 15.6801 102.407 15.6801C100.838 15.6801 99.3149 16.5284 98.7529 18.2251H98.0492L97.6743 15.9145H93.8096ZM98.2841 21.9281C98.2841 20.3013 99.1517 19.2882 100.815 19.2882C102.478 19.2882 103.11 20.1603 103.11 21.4565V23.1782C103.11 24.7591 102.174 25.3717 100.792 25.3717C99.1979 25.3717 98.2841 24.3573 98.2841 22.7067V21.9281ZM113.213 25.2544V11.0562H108.761V25.3256C108.761 27.3767 109.583 28.7454 112.159 28.7454H116.118V25.2558H113.213V25.2544ZM116.942 25.1344C116.942 27.4939 118.651 28.9798 121.275 28.9798C123.453 28.9798 124.977 27.9654 125.47 26.4558H126.1V28.744H130.788V25.4414H129.17V20.3263C129.17 17.5442 127.578 15.6801 123.5 15.6801C119.752 15.6801 117.574 17.3069 117.713 20.4672H121.814C121.743 19.4055 122.376 19.0525 123.29 19.0525C124.156 19.0525 124.717 19.4055 124.717 20.3026V21.1984L121.158 21.4341C118.651 21.6002 116.94 22.7778 116.94 25.1372L116.942 25.1344ZM121.439 24.5233C121.439 24.028 121.791 23.5564 122.588 23.509L124.719 23.3666V24.8526C124.367 25.3954 123.664 25.7483 122.797 25.7483C121.86 25.7483 121.44 25.3479 121.44 24.8051L121.439 24.5233ZM132.144 28.744H136.62V21.8806C136.62 20.3724 137.369 19.3106 138.868 19.3106C140.134 19.3106 140.837 20.0417 140.837 21.6226V28.744H145.334V20.0417C145.334 17.4242 143.906 15.6787 141.352 15.6787C139.384 15.6787 137.978 16.5982 137.322 18.2014H136.62L136.081 15.9145H132.144V28.744ZM146.771 22.3523C146.771 26.3386 149.373 28.9798 153.333 28.9798C156.612 28.9798 159.026 27.2344 159.354 24.5471H155.09C154.973 25.2768 154.224 25.7009 153.192 25.7009C152.137 25.7009 151.271 25.0423 151.271 24.0503V23.3904H159.214C159.354 22.8964 159.401 22.2114 159.401 21.5514C159.401 17.7311 156.659 15.6787 153.192 15.6787C149.584 15.6787 146.771 18.0841 146.771 22.3523ZM151.271 20.7017V20.4435C151.271 19.5938 152.068 18.9799 153.145 18.9799C154.224 18.9799 154.926 19.5938 154.926 20.4435V20.7017H151.271ZM43.4359 15.9159H52.2665V28.744H47.771V19.5212H43.4359V28.7426H38.9389V19.5212H36.6172V15.9159H38.9389V14.8108C38.9389 14.5122 38.9431 14.2932 38.9501 14.155C38.9584 14.0099 38.9822 13.8299 39.0198 13.6137C39.0645 13.3988 39.1343 13.1686 39.2249 12.923C39.6757 11.677 40.8239 11.0575 42.6684 11.0575H46.3171V14.5457H43.4359V15.9159ZM47.7933 14.5457V11.0562H52.2665V14.5457H47.7933Z" fill="black"/>
</g>
<defs>
<clipPath id="clip0_801_14565">
<rect width="160" height="40" fill="white"/>
</clipPath>
</defs>
</svg>
