<svg width="120" height="31" viewBox="0 0 120 31" fill="none" xmlns="http://www.w3.org/2000/svg">
<path d="M0 17.21C0 8.41022 6.93066 2.13609 16.7872 2.13609C19.7126 2.13609 22.9055 2.68107 24.6967 3.49346V8.98886H24.4962L17.6434 4.08316C17.2898 3.96051 16.5521 3.88121 15.8527 3.88121C10.6685 3.88121 7.00812 8.71082 7.00812 15.3745C7.00812 22.817 11.5694 28.6125 17.3654 28.6125C17.758 28.606 18.1492 28.5651 18.5347 28.4904L18.4231 28.4442V16.0864L16.6655 13.9393V13.7392H26.9103V13.9393L25.1527 16.0864V30.4596H24.9526L20.5135 29.0911C18.8007 29.9478 16.1528 30.5707 13.7723 30.5707C5.60696 30.5707 0 25.1527 0 17.21ZM31.6495 13.4386L29.5803 11.3698V11.2121L36.9448 9.26684H37.334L37.6106 13.4386H37.8439C39.524 10.4794 41.0035 9.26684 42.8722 9.26684C43.651 9.26684 44.3186 9.5006 44.6635 9.81229V16.1196H44.4634L40.5272 13.4713C40.4102 13.4467 40.2908 13.4354 40.1713 13.4376C39.3594 13.4376 38.1911 14.2164 37.8019 15.1509V27.9223L39.8592 29.7928V29.9929H29.8919V29.7928L31.6495 27.9237V13.4386ZM46.3339 29.9809V29.8251L48.0914 27.9117V13.4386L46.0226 11.4141V11.2121L53.8543 9.26504H54.2434V27.9228L56.0014 29.8362V29.992H46.3339V29.9809ZM47.812 3.08173C47.812 1.16833 49.103 0 51.1607 0C53.2184 0 54.5089 1.16833 54.5089 3.08173C54.5089 4.95087 53.23 6.11875 51.1607 6.11875C49.0915 6.11875 47.812 4.95087 47.812 3.08173ZM58.8604 29.9809V29.7808L60.618 27.9117V12.0706H57.8479V11.9148L60.651 9.5006C61.5078 3.8494 64.9788 0 69.2172 0C70.2738 0 71.5224 0.233758 72.0204 0.511778L71.3976 5.61803H71.1972L65.6244 3.15965C64.4118 3.28184 63.3648 5.26209 63.3648 7.05332C63.3648 9.35588 65.1228 10.6353 68.1138 10.6353H73.2978C73.6098 4.6415 76.9578 0 81.1296 0C82.1088 0 83.277 0.233758 83.8218 0.511778L83.1546 5.57377H82.9542L78.0054 3.23573C76.8708 3.34684 75.981 5.02648 75.981 6.86245C75.981 9.35215 77.6166 10.6431 80.7762 10.6431H92.691L92.3784 12.8719V27.9947L94.1364 29.8302V29.986H84.447V29.8302L86.238 27.9168V12.0706H79.4184V27.9228L81.7548 29.7928V29.9929H71.4732V29.7928L73.2642 27.8794V12.0706H66.759V27.9228L69.0948 29.7928V29.9929H58.8595L58.8604 29.9809ZM85.971 3.08173C85.971 1.16833 87.2502 0 89.3196 0C91.422 0 92.7126 1.16833 92.7126 3.08173C92.7126 4.95087 91.4214 6.11875 89.3196 6.11875C87.2502 6.11875 85.971 4.95087 85.971 3.08173ZM104.927 27.9228L106.685 29.7928V29.9929H97.0176V29.7928L98.7756 27.9237V13.4464L96.7062 11.3776V11.1771L104.071 9.26366H104.46L104.737 12.9235H105.004C107.139 10.4652 109.442 9.26366 112.012 9.26366C115.483 9.26366 117.896 11.5228 117.896 14.7148V27.9196L119.654 29.7887V29.9888H109.954V29.7887L111.745 27.7974V15.9393C111.745 14.0259 110.577 12.8581 108.707 12.8581C107.463 12.8581 106.218 13.3583 104.927 14.3708L104.927 27.9228Z" fill="black"/>
</svg>
