<svg width="105" height="25" viewBox="0 0 105 25" fill="none" xmlns="http://www.w3.org/2000/svg">
<path fill-rule="evenodd" clip-rule="evenodd" d="M10.373 0.701543C10.6603 0.642454 10.9567 0.642454 11.244 0.701543C11.5761 0.769846 11.8729 0.936102 12.1089 1.06828L12.1732 1.10421L20.1712 5.54755L20.2386 5.58475L20.2395 5.58524C20.4893 5.72283 20.8034 5.89584 21.0446 6.15759C21.2531 6.38389 21.4109 6.65211 21.5075 6.94431C21.6192 7.28228 21.6179 7.64087 21.6168 7.92607L21.6166 8.00403V16.7771L21.6168 16.855C21.6179 17.1402 21.6192 17.4988 21.5075 17.8368C21.4109 18.129 21.2531 18.3972 21.0446 18.6235C20.8034 18.8853 20.4893 19.0583 20.2395 19.1959L20.2009 19.2171L20.1712 19.2336L12.1732 23.6769L12.1089 23.7128C11.8729 23.845 11.5761 24.0113 11.244 24.0796C10.9567 24.1387 10.6603 24.1387 10.373 24.0796C10.0409 24.0113 9.74412 23.845 9.50813 23.7128L9.4438 23.6769L1.4458 19.2336L1.37756 19.1959C1.12775 19.0583 0.813646 18.8853 0.572435 18.6235C0.363892 18.3972 0.206071 18.129 0.109528 17.8368C-0.00213886 17.4988 -0.000832399 17.1402 0.000206589 16.855L0.000398448 16.7771V8.00403L0.000206589 7.92607C-0.000832399 7.64087 -0.00213886 7.28228 0.109527 6.94431C0.206071 6.65211 0.363891 6.38389 0.572435 6.15759C0.813645 5.89584 1.12775 5.72284 1.37755 5.58524L1.4458 5.54755L9.4438 1.10421L9.50812 1.06828C9.74411 0.936105 10.0409 0.769846 10.373 0.701543ZM10.8033 2.82676C10.741 2.85684 10.6574 2.90282 10.4936 2.99381L3.30675 6.9865L10.8085 11.1541L18.3102 6.98647L11.1234 2.99381C10.9597 2.90282 10.876 2.85684 10.8137 2.82676L10.8085 2.82429L10.8033 2.82676ZM9.72767 13.0265L2.16202 8.82334V16.7771C2.16202 16.9749 2.16247 17.0761 2.16689 17.1494L2.16728 17.1556L2.17251 17.1589C2.23443 17.1984 2.3227 17.2479 2.49558 17.344L9.72769 21.3618L9.72767 13.0265ZM38.5826 11.5348H35.434C35.392 11.2115 35.3059 10.9198 35.1758 10.6595C35.0456 10.3992 34.8735 10.1767 34.6594 9.99197C34.4453 9.80725 34.1913 9.66661 33.8974 9.57005C33.6078 9.46929 33.2866 9.41891 32.934 9.41891C32.3084 9.41891 31.769 9.57215 31.3156 9.87861C30.8664 10.1851 30.52 10.628 30.2765 11.2073C30.0372 11.7867 29.9176 12.4878 29.9176 13.3106C29.9176 14.1671 30.0393 14.885 30.2828 15.4643C30.5305 16.0395 30.8769 16.474 31.3219 16.7679C31.7711 17.0575 32.3021 17.2024 32.9151 17.2024C33.2593 17.2024 33.5721 17.1583 33.8534 17.0701C34.1388 16.982 34.3886 16.8539 34.6027 16.686C34.821 16.5139 34.9995 16.3061 35.138 16.0626C35.2807 15.8149 35.3794 15.5357 35.434 15.225L38.5826 15.2439C38.528 15.8149 38.3622 16.3774 38.0851 16.9316C37.8122 17.4857 37.4365 17.9916 36.9579 18.4492C36.4793 18.9026 35.8958 19.2637 35.2073 19.5324C34.523 19.801 33.7379 19.9354 32.8521 19.9354C31.685 19.9354 30.6397 19.6793 29.7161 19.1671C28.7967 18.6507 28.0704 17.8993 27.5372 16.9127C27.004 15.9261 26.7375 14.7254 26.7375 13.3106C26.7375 11.8917 27.0082 10.6889 27.5498 9.70229C28.0914 8.71572 28.8239 7.96634 29.7475 7.45416C30.6711 6.94198 31.706 6.68589 32.8521 6.68589C33.633 6.68589 34.355 6.79504 35.0184 7.01335C35.6817 7.22745 36.2652 7.54232 36.769 7.95794C37.2728 8.36936 37.6821 8.87525 37.997 9.47559C38.3118 10.0759 38.507 10.7623 38.5826 11.5348ZM42.4323 19.7591V6.86225H39.353V19.7591H42.4323ZM67.1381 19.8976C66.4244 19.8976 65.7758 19.7129 65.1923 19.3435C64.6087 18.974 64.1427 18.4199 63.7943 17.681C63.4458 16.9421 63.2716 16.0248 63.2716 14.9291C63.2716 13.7914 63.4521 12.8552 63.8132 12.1205C64.1742 11.3858 64.6465 10.8421 65.23 10.4895C65.8178 10.1368 66.4496 9.96052 67.1255 9.96052C67.6335 9.96052 68.068 10.0487 68.4291 10.225C68.7901 10.3971 69.0882 10.6196 69.3233 10.8925C69.5584 11.1654 69.7368 11.4488 69.8585 11.7427H69.9215V6.86225H73.0009V19.7591H69.953V18.1911H69.8585C69.7284 18.4892 69.5437 18.7683 69.3044 19.0286C69.0651 19.2889 68.7649 19.4988 68.4039 19.6583C68.047 19.8179 67.6251 19.8976 67.1381 19.8976ZM68.2087 17.4984C68.5823 17.4984 68.9014 17.3934 69.1658 17.1835C69.4303 16.9694 69.6339 16.6692 69.7767 16.283C69.9194 15.8968 69.9908 15.4434 69.9908 14.9228C69.9908 14.3938 69.9194 13.9383 69.7767 13.5563C69.6381 13.1742 69.4345 12.8804 69.1658 12.6747C68.9014 12.4689 68.5823 12.3661 68.2087 12.3661C67.8266 12.3661 67.5034 12.471 67.2389 12.6809C66.9744 12.8909 66.7729 13.1868 66.6343 13.5689C66.5 13.9509 66.4328 14.4022 66.4328 14.9228C66.4328 15.4434 66.5021 15.8968 66.6406 16.283C66.7792 16.6692 66.9786 16.9694 67.2389 17.1835C67.5034 17.3934 67.8266 17.4984 68.2087 17.4984ZM77.0144 19.7591V14.2427C77.0186 13.8732 77.0878 13.5584 77.2222 13.2981C77.3607 13.0378 77.5517 12.8384 77.7952 12.6998C78.0429 12.5571 78.3284 12.4857 78.6517 12.4857C79.147 12.4857 79.5312 12.6369 79.804 12.9391C80.0769 13.2414 80.2113 13.6612 80.2071 14.1986V19.7591H83.2864V13.5941C83.2906 12.8636 83.1521 12.2254 82.8708 11.6797C82.5937 11.1339 82.2033 10.712 81.6995 10.4139C81.1957 10.1117 80.6038 9.96052 79.9237 9.96052C79.2016 9.96052 78.5908 10.1284 78.0912 10.4643C77.5958 10.8002 77.239 11.2662 77.0207 11.8623H76.9136V6.86225H73.935V19.7591H77.0144ZM94.4557 19.7591V6.86225H97.5351V11.7427H97.598C97.724 11.4488 97.9024 11.1654 98.1333 10.8925C98.3684 10.6196 98.6665 10.3971 99.0275 10.225C99.3928 10.0487 99.8294 9.96052 100.337 9.96052C101.009 9.96052 101.637 10.1368 102.22 10.4895C102.808 10.8421 103.282 11.3858 103.643 12.1205C104.004 12.8552 104.185 13.7914 104.185 14.9291C104.185 16.0248 104.011 16.9421 103.662 17.681C103.318 18.4199 102.852 18.974 102.264 19.3435C101.681 19.7129 101.032 19.8976 100.318 19.8976C99.8315 19.8976 99.4096 19.8179 99.0527 19.6583C98.6959 19.4988 98.3957 19.2889 98.1522 19.0286C97.9129 18.7683 97.7282 18.4892 97.598 18.1911H97.5036V19.7591H94.4557ZM97.4721 14.9228C97.4721 15.4434 97.5414 15.8968 97.6799 16.283C97.8226 16.6692 98.0263 16.9694 98.2907 17.1835C98.5594 17.3934 98.8806 17.4984 99.2542 17.4984C99.6321 17.4984 99.9532 17.3934 100.218 17.1835C100.482 16.9694 100.682 16.6692 100.816 16.283C100.954 15.8968 101.024 15.4434 101.024 14.9228C101.024 14.4022 100.954 13.9509 100.816 13.5689C100.682 13.1868 100.482 12.8909 100.218 12.6809C99.9574 12.471 99.6363 12.3661 99.2542 12.3661C98.8764 12.3661 98.5552 12.4689 98.2907 12.6747C98.0263 12.8804 97.8226 13.1742 97.6799 13.5563C97.5414 13.9383 97.4721 14.3938 97.4721 14.9228ZM90.4359 15.584V10.0864H93.509V19.7591H90.5745V17.958H90.4737C90.2596 18.55 89.8944 19.0202 89.378 19.3686C88.8658 19.7129 88.2466 19.885 87.5203 19.885C86.8612 19.885 86.2819 19.7339 85.7823 19.4316C85.2827 19.1293 84.8944 18.7074 84.6173 18.1659C84.3402 17.6201 84.1996 16.982 84.1954 16.2515V10.0864H87.2747V15.6469C87.2789 16.1717 87.4175 16.5852 87.6903 16.8875C87.9632 17.1898 88.3348 17.3409 88.805 17.3409C89.1114 17.3409 89.3864 17.2737 89.6299 17.1394C89.8776 17.0009 90.0728 16.8014 90.2155 16.5412C90.3625 16.2767 90.4359 15.9576 90.4359 15.584ZM59.5856 10.0864V15.584C59.5856 15.9576 59.5121 16.2767 59.3652 16.5412C59.2225 16.8014 59.0272 17.0009 58.7796 17.1394C58.5361 17.2737 58.2611 17.3409 57.9546 17.3409C57.4844 17.3409 57.1129 17.1898 56.84 16.8875C56.5671 16.5852 56.4286 16.1717 56.4244 15.6469V10.0864H53.345V16.2515C53.3492 16.982 53.4899 17.6201 53.7669 18.1659C54.044 18.7074 54.4323 19.1293 54.9319 19.4316C55.4315 19.7339 56.0109 19.885 56.67 19.885C57.3963 19.885 58.0155 19.7129 58.5277 19.3686C59.044 19.0202 59.4093 18.55 59.6234 17.958H59.7241V19.7591H62.6587V10.0864H59.5856ZM47.8942 19.9416C46.8782 19.9416 46.005 19.7338 45.2745 19.3182C44.5482 18.8984 43.9878 18.3148 43.5932 17.5675C43.2027 16.816 43.0075 15.9449 43.0075 14.9541C43.0075 13.9592 43.2027 13.088 43.5932 12.3408C43.9878 11.5893 44.5482 11.0057 45.2745 10.5901C46.005 10.1703 46.8782 9.96039 47.8942 9.96039C48.9101 9.96039 49.7813 10.1703 50.5076 10.5901C51.238 11.0057 51.7985 11.5893 52.1889 12.3408C52.5836 13.088 52.7809 13.9592 52.7809 14.9541C52.7809 15.9449 52.5836 16.816 52.1889 17.5675C51.7985 18.3148 51.238 18.8984 50.5076 19.3182C49.7813 19.7338 48.9101 19.9416 47.8942 19.9416ZM47.9131 17.6179C48.2825 17.6179 48.5953 17.5046 48.8514 17.2778C49.1075 17.0511 49.3027 16.7363 49.437 16.3333C49.5756 15.9302 49.6448 15.4642 49.6448 14.9353C49.6448 14.3979 49.5756 13.9277 49.437 13.5247C49.3027 13.1216 49.1075 12.8068 48.8514 12.5801C48.5953 12.3534 48.2825 12.24 47.9131 12.24C47.531 12.24 47.2078 12.3534 46.9433 12.5801C46.683 12.8068 46.4836 13.1216 46.3451 13.5247C46.2107 13.9277 46.1436 14.3979 46.1436 14.9353C46.1436 15.4642 46.2107 15.9302 46.3451 16.3333C46.4836 16.7363 46.683 17.0511 46.9433 17.2778C47.2078 17.5046 47.531 17.6179 47.9131 17.6179Z" fill="black"/>
</svg>
