<svg width="36" height="39" viewBox="0 0 36 39" fill="none" xmlns="http://www.w3.org/2000/svg">
<path fill-rule="evenodd" clip-rule="evenodd" d="M18.2715 0.0720142C17.8046 -0.0240047 17.3231 -0.0240047 16.8562 0.0720143C16.3165 0.183007 15.8342 0.453177 15.4507 0.667964L15.3462 0.726355L2.34942 7.94677C2.31349 7.96674 2.27646 7.98713 2.23853 8.00803C1.83259 8.23162 1.32217 8.51275 0.930207 8.93809C0.591323 9.30583 0.334865 9.74168 0.177982 10.2165C-0.00347565 10.7657 -0.00135265 11.3484 0.000335707 11.8119C0.000493534 11.8552 0.000647477 11.8974 0.000647477 11.9385V26.1948C0.000647477 26.2359 0.000493534 26.2781 0.000335707 26.3215C-0.00135265 26.7849 -0.00347565 27.3676 0.177982 27.9168C0.334866 28.3916 0.591325 28.8275 0.930207 29.1952C1.32217 29.6206 1.83259 29.9017 2.23853 30.1253C2.27647 30.1462 2.31349 30.1666 2.34942 30.1865L15.3462 37.407L15.4507 37.4654C15.8342 37.6801 16.3165 37.9503 16.8562 38.0613C17.3231 38.1573 17.8046 38.1573 18.2715 38.0613C18.8111 37.9503 19.2935 37.6801 19.677 37.4654L19.7815 37.407L32.7782 30.1865C32.7941 30.1777 32.8102 30.1688 32.8265 30.1598C32.8471 30.1485 32.868 30.137 32.8891 30.1253C33.2951 29.9017 33.8055 29.6206 34.1974 29.1952C34.5363 28.8275 34.7928 28.3916 34.9497 27.9168C35.1311 27.3676 35.129 26.7849 35.1273 26.3214C35.1272 26.2781 35.127 26.2359 35.127 26.1948V11.9385C35.127 11.8974 35.1272 11.8552 35.1273 11.8119C35.129 11.3484 35.1311 10.7657 34.9497 10.2165C34.7928 9.74168 34.5363 9.30583 34.1974 8.93809C33.8055 8.51274 33.2951 8.23161 32.8891 8.00802L32.8877 8.00723C32.8503 7.98661 32.8137 7.96648 32.7782 7.94677L19.7815 0.726354L19.677 0.667958C19.2935 0.453173 18.8111 0.183006 18.2715 0.0720142ZM17.0521 3.79695C17.3182 3.64909 17.4541 3.57437 17.5554 3.52549L17.5638 3.52147L17.5722 3.52549C17.6736 3.57437 17.8094 3.64909 18.0756 3.79695L29.7541 10.285L17.5638 17.0574L5.37347 10.2851L17.0521 3.79695ZM3.51328 13.2699L15.8075 20.1L15.8075 33.6449L4.05531 27.1159C3.77438 26.9599 3.63095 26.8794 3.53032 26.8152L3.52182 26.8098L3.52119 26.7997C3.51401 26.6806 3.51328 26.5161 3.51328 26.1948V13.2699Z" fill="url(#paint0_linear_801_14392)"/>
<defs>
<linearGradient id="paint0_linear_801_14392" x1="20.5068" y1="54.0052" x2="-17.4983" y2="18.9956" gradientUnits="userSpaceOnUse">
<stop stop-color="#FB432C"/>
<stop offset="1" stop-color="#FF591E"/>
</linearGradient>
</defs>
</svg>
