<svg width="35" height="35" viewBox="0 0 35 35" fill="none" xmlns="http://www.w3.org/2000/svg">
<path fill-rule="evenodd" clip-rule="evenodd" d="M18.1377 0.4533C17.7187 0.367129 17.2866 0.367129 16.8676 0.4533C16.3833 0.552909 15.9504 0.795369 15.6062 0.988127L15.5124 1.04053L3.84869 7.52039C3.81644 7.53831 3.78322 7.55661 3.74917 7.57536C3.38486 7.77602 2.9268 8.02832 2.57504 8.41004C2.27091 8.74006 2.04075 9.13121 1.89996 9.55733C1.73712 10.0502 1.73902 10.5732 1.74054 10.9891C1.74068 11.0279 1.74082 11.0659 1.74082 11.1028V23.8968C1.74082 23.9337 1.74068 23.9716 1.74054 24.0105C1.73902 24.4264 1.73712 24.9493 1.89996 25.4422C2.04075 25.8683 2.27091 26.2595 2.57504 26.5895C2.9268 26.9712 3.38487 27.2235 3.74917 27.4242C3.78322 27.4429 3.81645 27.4612 3.84869 27.4792L15.5124 33.959L15.6063 34.0114C15.9504 34.2042 16.3833 34.4466 16.8676 34.5462C17.2866 34.6324 17.7187 34.6324 18.1377 34.5462C18.622 34.4466 19.0549 34.2042 19.399 34.0114L19.4928 33.959L31.1566 27.4792C31.1709 27.4712 31.1853 27.4632 31.1999 27.4552C31.2184 27.445 31.2371 27.4347 31.2561 27.4242C31.6204 27.2235 32.0785 26.9712 32.4303 26.5895C32.7344 26.2595 32.9645 25.8683 33.1053 25.4422C33.2682 24.9493 33.2663 24.4264 33.2648 24.0105C33.2646 23.9716 33.2645 23.9337 33.2645 23.8968V11.1028C33.2645 11.0659 33.2646 11.0279 33.2648 10.9891C33.2663 10.5732 33.2682 10.0502 33.1053 9.55733C32.9645 9.13121 32.7344 8.74006 32.4303 8.41003C32.0785 8.02831 31.6204 7.77601 31.2561 7.57535L31.2548 7.57465C31.2212 7.55614 31.1884 7.53808 31.1566 7.52039L19.4929 1.04053L19.399 0.988122C19.0549 0.795365 18.622 0.552908 18.1377 0.4533ZM17.0434 3.79619C17.2822 3.66349 17.4042 3.59644 17.4951 3.55257L17.5026 3.54897L17.5102 3.55257C17.6011 3.59644 17.7231 3.66349 17.9619 3.79619L28.4427 9.61882L17.5026 15.6966L6.56258 9.61885L17.0434 3.79619ZM4.89318 12.2976L15.9264 18.4272L15.9265 30.5828L5.37962 24.7235C5.1275 24.5834 4.99878 24.5112 4.90847 24.4536L4.90085 24.4487L4.90028 24.4397C4.89384 24.3328 4.89318 24.1852 4.89318 23.8968V12.2976Z" fill="white"/>
</svg>
