<svg width="140" height="20" viewBox="0 0 140 20" fill="none" xmlns="http://www.w3.org/2000/svg">
<path d="M135.739 0.492425H140V19.0406H135.521L128.857 7.11284V19.0406H124.569V0.492425H129.048L135.739 12.5569V0.492425ZM107.69 0C113.835 0 117.468 4.65072 117.468 9.73917C117.468 14.8275 113.808 19.4783 107.69 19.4783C101.518 19.4783 97.8852 14.8275 97.8852 9.73917C97.8852 4.67807 101.545 0 107.69 0ZM113.126 9.76647C113.126 6.72985 111.049 3.88471 107.717 3.88471C104.331 3.88471 102.31 6.72985 102.31 9.76647C102.31 12.8031 104.358 15.6483 107.717 15.6483C111.049 15.6209 113.126 12.8031 113.126 9.76647ZM38.5369 4.18564V0.492425H51.2095V4.18564H47.0035V19.0132H42.7155V4.18564H38.5369ZM83.9293 8.15241H90.9482V11.5174H83.9566V15.5936H90.9482V19.0406H79.6684V0.492425H90.9482V3.93942H83.9566V8.15241H83.9293ZM65.6301 0.492425C69.7269 0.492425 72.3758 3.58378 72.3758 7.19495C72.3758 9.79384 71.0108 12.0919 68.689 13.1861L72.4031 19.0406H67.4327L64.1553 13.8975H62.1342V19.0406H57.8462V0.492425H65.6301ZM68.0336 7.19495C68.0336 5.47142 66.8592 3.99414 65.0839 3.99414H62.1615V10.3957H65.0839C66.8865 10.3957 68.0336 8.91842 68.0336 7.19495ZM30.1522 16.7699H23.5701L22.8599 19.0132H18.2988L24.9083 0.465067H28.8412L35.5326 19.0132H30.8896L30.1522 16.7699ZM26.8748 5.77236L24.6079 13.405H29.1143L26.8748 5.77236ZM7.75656 0.492425C11.8533 0.492425 14.5025 3.58378 14.5025 7.19495C14.5025 10.806 11.8533 13.8975 7.75656 13.8975H4.28794V19.0406H0V0.492425H7.75656ZM10.1873 7.19495C10.1873 5.47142 9.01285 3.99414 7.23758 3.99414H4.28794V10.3957H7.21028C9.01285 10.3957 10.1873 8.91842 10.1873 7.19495Z" fill="black"/>
</svg>
