<svg width="120" height="46" viewBox="0 0 120 46" fill="none" xmlns="http://www.w3.org/2000/svg">
<path fill-rule="evenodd" clip-rule="evenodd" d="M62.8936 15.4442C61.89 14.6002 60.1774 14.1786 57.7546 14.1786H52.29V31.066H56.3761V25.7733H58.2065C60.428 25.7733 62.0571 25.2843 63.0938 24.3056C64.2616 23.209 64.8493 21.7489 64.8493 19.9261C64.8493 18.036 64.1971 16.5417 62.8936 15.4442ZM58.1049 21.9521H56.3761V17.9999H57.9293C59.8185 17.9999 60.7632 18.6625 60.7632 19.9879C60.7632 21.2961 59.8765 21.9521 58.1049 21.9521ZM71.8414 14.1777H67.5805V31.0651H76.7801V27.2429H71.8414V14.1777ZM85.1277 14.1777L78.4351 31.0651H83.0224L83.8996 28.61H89.7151L90.5171 31.0651H95.1561L88.5105 14.1777H85.1277ZM85.0776 25.1913L86.8328 19.4192L88.5606 25.1913H85.0776Z" fill="black"/>
<path fill-rule="evenodd" clip-rule="evenodd" d="M97.2843 31.0652H101.547V14.1778H97.2843V31.0652ZM118.092 17.343C117.554 16.5625 116.863 15.8995 116.061 15.394C114.774 14.5833 113.019 14.1788 110.796 14.1788H105.182V31.0652H111.749C114.122 31.0652 116.027 30.2896 117.464 28.7364C118.902 27.1842 119.62 25.124 119.62 22.5579C119.62 20.5168 119.111 18.7785 118.092 17.343ZM111.273 27.2421H109.443V18.001H111.299C112.602 18.001 113.604 18.4092 114.306 19.2228C115.009 20.0364 115.36 21.1908 115.36 22.6852C115.36 25.7231 113.997 27.2421 111.273 27.2421ZM17.6933 0L3.88292 3.61708L0.0768987 17.5054L4.83703 22.3927L0 27.1994L3.58197 41.1484L17.3326 44.9905L22.1706 40.1829L26.9307 45.0693L40.7412 41.4522L44.5462 27.563L39.787 22.6776L44.6241 17.8709L41.0421 3.92088L27.2896 0.0787976L22.4535 4.88544L17.6933 0ZM9.21839 6.2886L16.4934 4.38227L19.6747 7.64809L15.0351 12.2582L9.21839 6.2886ZM25.1886 7.69176L28.4212 4.48006L35.6649 6.50411L29.7532 12.3778L25.1886 7.69176ZM4.43545 16.3652L6.43956 9.05034L12.2545 15.02L7.61586 19.6301L4.43545 16.3652ZM32.4864 15.1852L38.3981 9.30948L40.2836 16.6576L37.0519 19.8702L32.4864 15.1852ZM17.7693 15.0645L22.4089 10.4544L26.9725 15.1405L22.3339 19.7506L17.7693 15.0645ZM10.3509 22.4364L14.9896 17.8263L19.556 22.5124L14.9155 27.1225L10.3509 22.4364ZM25.069 22.5569L29.7076 17.9468L34.2722 22.6329L29.6326 27.243L25.069 22.5569ZM4.33861 28.4117L7.57219 25.1981L12.1358 29.8852L6.22595 35.7579L4.33861 28.4117ZM17.6497 29.9288L22.2893 25.3187L26.8538 30.0048L22.2152 34.6149L17.6497 29.9288ZM32.3668 30.0503L37.0064 25.4402L40.1877 28.7051L38.1845 36.02L32.3668 30.0503ZM8.95917 38.5662L14.8699 32.6905L19.4364 37.3766L16.2028 40.5902L8.95917 38.5662ZM24.9494 37.4212L29.588 32.8111L35.4038 38.7816L28.1298 40.687L24.9494 37.4212Z" fill="black"/>
</svg>
