<svg width="160" height="40" viewBox="0 0 160 40" fill="none" xmlns="http://www.w3.org/2000/svg">
<g clip-path="url(#clip0_801_14576)">
<path d="M43.9987 9.99968L43.9416 10.0187V18.5328H35.8655V10.0187L35.8084 9.99968C34.6084 9.75206 33.4275 9.75206 32.2466 9.99968L32.1895 10.0187V29.5993L32.2466 29.6184C32.8371 29.7326 33.4275 29.8088 34.0179 29.8088C34.6084 29.8088 35.1989 29.7516 35.8084 29.6184L35.8655 29.5993V21.6566H43.9416V29.5993L43.9987 29.6184C45.1797 29.866 46.3796 29.866 47.5606 29.6184L47.6177 29.5993V10.0187L47.5606 9.99968C46.3606 9.77111 45.1797 9.77111 43.9987 9.99968ZM56.5128 15.5044C52.2843 15.5044 49.77 18.1709 49.77 22.6471C49.77 24.9708 50.3034 26.8184 51.37 28.0946C52.5319 29.485 54.2652 30.1898 56.5699 30.1898C60.4746 30.1898 62.4746 27.866 62.7222 25.5613V25.5041L62.6651 25.4851C61.6746 25.1613 60.7603 25.0851 59.6747 25.2375H59.6365V25.2756C59.4079 26.647 58.2651 27.466 56.608 27.466C54.2843 27.466 53.1414 26.1899 53.1033 23.5613H62.9317V23.5042C63.2175 20.9137 62.7031 18.8185 61.446 17.39C60.2842 16.171 58.589 15.5044 56.5128 15.5044ZM56.4747 18.0376C57.4461 18.0376 58.2651 18.3424 58.8175 18.9328C59.3889 19.5424 59.6747 20.4566 59.6175 21.5423H53.1033C53.1605 19.3138 54.3986 18.0376 56.4747 18.0376ZM65.3127 9.99968L65.2555 10.0187V29.5993L65.3127 29.6184C65.865 29.7326 66.4174 29.8088 66.9888 29.8088C67.5411 29.8088 68.1126 29.7516 68.665 29.6184L68.7221 29.5993V10.0187L68.665 9.99968C67.5602 9.75206 66.4364 9.77111 65.3127 9.99968ZM78.36 15.5044C76.8934 15.5044 75.3505 16.0757 73.8839 17.1614L73.6743 16.1329L73.6363 16.1139C72.7982 15.8662 72.1125 15.8662 71.2935 16.1139L71.2554 16.1329V35.6182L71.3125 35.6373C71.8649 35.7516 72.4172 35.8277 72.9887 35.8277C73.5601 35.8277 74.1124 35.7706 74.6648 35.6373L74.7219 35.6182V29.104C75.8839 29.8469 77.1219 30.1898 78.5123 30.1898C82.3595 30.1898 84.6643 27.466 84.6643 22.8756C84.6459 18.209 82.3595 15.5044 78.36 15.5044ZM74.6648 19.3709C75.6934 18.6662 76.6458 18.3424 77.6743 18.3424C80.0171 18.3424 81.2931 19.9614 81.2931 22.9328C81.2931 25.847 80.0363 27.3898 77.6362 27.3898C76.6076 27.3898 75.6362 27.066 74.6648 26.3803V19.3709ZM99.3499 19.0662C98.7595 18.8376 98.2259 18.6472 97.7123 18.4757C95.0451 17.5233 93.4451 16.952 93.4075 15.5044C93.3883 14.8376 93.5979 14.2663 94.0547 13.79C94.7219 13.1044 95.8451 12.7424 97.2171 12.7424C98.5691 12.7424 99.6171 13.1044 100.245 13.771C100.779 14.3424 101.008 15.1234 100.95 16.0948V16.152L101.008 16.171C102.169 16.3996 103.331 16.3805 104.588 16.0948L104.645 16.0757V16.0186C104.721 14.3805 104.226 12.952 103.216 11.8854C101.96 10.552 99.9403 9.8473 97.3883 9.82825H97.3123C92.5691 9.82825 89.7123 11.9425 89.6739 15.4853C89.6547 19.009 92.8931 20.19 94.8355 20.8756L95.1219 20.99C95.7691 21.2185 96.3787 21.428 96.9123 21.6185C99.5403 22.5328 101.121 23.0852 101.179 24.4756C101.198 25.1994 100.988 25.7899 100.55 26.247C99.9211 26.8946 98.8171 27.2184 97.3499 27.1993C95.7307 27.1993 94.4931 26.7803 93.7883 26.0184C93.2739 25.447 93.0643 24.7232 93.1403 23.847V23.7899L93.0835 23.7708C91.9027 23.5423 90.7027 23.5613 89.5219 23.828L89.4835 23.847V23.9042C89.3883 25.4851 89.8643 26.8946 90.8931 27.9803C92.2643 29.4469 94.5123 30.2088 97.4075 30.1898C100.245 30.1898 104.912 29.4279 104.95 24.4756C104.893 21.1804 102.074 20.1138 99.3499 19.0662ZM113.464 18.3424C115.807 18.3424 116.36 19.8661 116.474 20.7614V20.8185H116.531C117.616 20.99 118.645 20.9137 119.636 20.628L119.692 20.609V20.5519C119.597 19.1804 119.007 17.9424 118.036 17.0472C116.931 16.0376 115.35 15.4853 113.484 15.4853C109.026 15.4853 106.569 18.0948 106.569 22.8376C106.569 27.5612 109.007 30.1707 113.426 30.1707C115.331 30.1707 116.931 29.6184 118.055 28.5708C118.988 27.6946 119.56 26.5136 119.673 25.2375V25.1804L119.616 25.1613C118.683 24.8375 117.655 24.7804 116.531 24.9708H116.492V25.0089C116.188 27.1422 114.112 27.2946 113.484 27.2946C111.084 27.2946 109.96 25.866 109.96 22.7994C109.94 19.7709 111.064 18.3424 113.464 18.3424ZM128.131 15.5044C123.75 15.5044 121.331 18.1138 121.331 22.8566C121.331 27.5803 123.75 30.1898 128.131 30.1898C132.512 30.1898 134.931 27.5803 134.931 22.8566C134.931 18.1138 132.512 15.5044 128.131 15.5044ZM131.616 22.8756C131.616 25.9041 130.473 27.3708 128.131 27.3708C125.788 27.3708 124.645 25.9041 124.645 22.8756C124.645 19.79 125.75 18.3424 128.131 18.3424C130.473 18.3424 131.616 19.828 131.616 22.8756ZM145.902 16.1329L145.844 16.152V25.9041C144.74 26.8565 143.73 27.2756 142.568 27.2756C140.93 27.2756 140.225 26.3422 140.225 24.1328V16.1329L140.168 16.1139C139.064 15.8472 137.94 15.8472 136.816 16.1139L136.759 16.1329V24.9136C136.759 28.2469 138.549 30.1707 141.692 30.1707C143.368 30.1707 144.835 29.5231 146.416 28.0755L146.74 29.5993L146.778 29.6184C147.578 29.8279 148.416 29.8279 149.216 29.6184L149.273 29.5993V16.1329L149.216 16.1139C148.149 15.8472 147.025 15.8472 145.902 16.1329ZM159.825 26.9898L159.806 26.9327L159.749 26.9517C158.416 27.2565 157.635 27.2374 157.178 26.8756C156.796 26.5708 156.625 26.0375 156.625 25.1994V18.9519H159.33L159.349 18.8948C159.54 17.9804 159.54 17.0472 159.349 16.1139L159.33 16.0567H156.625V12.3616L156.568 12.3425C155.464 12.0948 154.34 12.0948 153.235 12.3425L153.178 12.3616L153.196 16.0567H151.483L151.464 16.1139C151.254 17.0281 151.254 17.9804 151.464 18.8948L151.483 18.9519H153.196L153.216 24.9518C153.216 26.628 153.311 28.3232 154.473 29.2945C155.101 29.8088 156.016 30.0755 157.196 30.0755C157.92 30.0755 158.759 29.9803 159.73 29.7898H159.768L159.787 29.7516C160.054 28.8564 160.073 27.9232 159.825 26.9898Z" fill="black"/>
<path d="M1.88568 22.5139L11.1426 13.257C12.3426 12.076 13.0854 10.4189 13.0854 8.60944C13.0854 6.81899 12.3617 5.18093 11.1998 4L1.94282 13.257C0.742843 14.4379 0 16.095 0 17.9045C0 19.714 0.723796 21.333 1.88568 22.5139ZM24.3043 17.1045L15.0474 26.3615C13.8474 27.5424 13.1045 29.1995 13.1045 31.009C13.1045 32.7994 13.8283 34.4375 14.9902 35.6185L24.2472 26.3615C25.4471 25.1806 26.19 23.5234 26.19 21.7139C26.19 19.9045 25.4662 18.2854 24.3043 17.1045ZM24.2472 13.276C25.4471 12.0951 26.19 10.438 26.19 8.62848C26.19 6.83804 25.4662 5.19998 24.3043 4.01905L1.94282 26.3615C0.742843 27.5614 0 29.1995 0 31.0281C0 32.8185 0.723796 34.4566 1.88568 35.6375L24.2472 13.276Z" fill="black"/>
</g>
<defs>
<clipPath id="clip0_801_14576">
<rect width="160" height="40" fill="white"/>
</clipPath>
</defs>
</svg>
